<svg width="18" height="11" viewBox="0 0 18 11" fill="none" xmlns="http://www.w3.org/2000/svg">
<path d="M17.2225 4.72549H2.55642L5.77027 1.36112C6.06232 1.05539 6.06232 0.558417 5.77027 0.252736C5.47822 -0.0529952 5.00348 -0.0529952 4.71148 0.252736L0.218639 4.95595L0.214162 4.96379L0.0584293 5.20994L0 5.50935V5.51251L0.0584293 5.80882L0.214162 6.05496L0.218639 6.06439L4.71143 10.7676C5.00348 11.0718 5.47822 11.0718 5.77023 10.7676C6.06228 10.4634 6.06228 9.96337 5.77023 9.65922L2.55638 6.29326H17.2224C17.6343 6.29326 17.9712 5.9421 17.9712 5.5094C17.9713 5.07665 17.6343 4.72549 17.2225 4.72549Z" fill="#2C3E50"/>
</svg>
